<svg width="296" height="40" viewBox="0 0 296 40" fill="none" xmlns="http://www.w3.org/2000/svg">
<g clip-path="url(#clip0_1536_6689)">
<path d="M32.8846 9.291L18.4548 0.915034L18.3221 0.843161C17.9549 0.658061 17.5501 0.559705 17.1389 0.555669C16.7201 0.554843 16.3071 0.65337 15.9337 0.843161L15.801 0.915034L1.33796 9.291C0.931987 9.52795 0.594971 9.86686 0.360293 10.2742C0.125616 10.6814 0.00142204 11.143 1.50856e-05 11.613V28.376C-0.00109321 28.7085 0.0588745 29.0383 0.176933 29.3491C0.222427 29.4687 0.275995 29.585 0.337265 29.6974C0.337265 29.6974 0.337265 29.6974 0.337265 29.7306C0.573636 30.1357 0.910739 30.4728 1.31584 30.7091L15.7457 39.0851C16.154 39.3215 16.6174 39.4459 17.0892 39.4459C17.561 39.4459 18.0244 39.3215 18.4327 39.0851L32.8625 30.7091C33.2685 30.4757 33.6045 30.1378 33.8356 29.7306C33.8374 29.7177 33.8374 29.7047 33.8356 29.6919C33.8973 29.5824 33.9491 29.4677 33.9904 29.3491C34.1147 29.0397 34.1786 28.7094 34.1784 28.376V11.613C34.1804 11.1474 34.0625 10.6892 33.8359 10.2824C33.6093 9.87571 33.2817 9.53424 32.8846 9.291ZM24.6967 25.9102C22.2011 25.2847 19.6397 24.9599 17.0671 24.9427C14.2653 24.9652 11.4781 25.3479 8.77404 26.0816C7.05138 26.5232 5.37141 27.1171 3.75399 27.8563C3.20112 28.1272 2.74224 28.376 2.42158 28.5529C5.27991 26.7229 12.2958 21.6476 15.4969 12.3428C16.5429 9.33112 17.0973 6.17068 17.1389 2.98276C17.1155 6.11927 17.599 9.23896 18.5709 12.2212C21.7222 21.7029 28.9869 26.8003 31.7844 28.5529C29.5303 27.4047 27.1523 26.518 24.6967 25.9102Z" fill="#0078D4"/>
</g>
<path d="M54.2262 25.0528C54.2231 24.3816 54.387 23.7202 54.7031 23.1282C55.0192 22.5361 55.4777 22.0319 56.0371 21.6611C57.2444 20.764 58.9119 20.3154 61.0396 20.3154C61.8388 20.3098 62.636 20.3954 63.4158 20.5706C64.101 20.7178 64.7709 20.9288 65.4168 21.2009L65.2317 22.0263C64.6416 21.7916 64.0366 21.5961 63.4208 21.441C62.7538 21.2723 62.0678 21.1899 61.3798 21.1959C60.2148 21.1282 59.0613 21.458 58.1081 22.1313C57.7219 22.4281 57.4117 22.8123 57.203 23.2524C56.9943 23.6924 56.893 24.1758 56.9075 24.6626C56.8798 25.1035 56.9497 25.5451 57.1122 25.9558C57.2748 26.3666 57.526 26.7363 57.848 27.0388C58.5048 27.6136 59.3571 27.9145 60.2292 27.8792C61.1934 27.8783 62.1442 27.6521 63.0056 27.2189C63.9143 26.7642 64.7132 26.1173 65.3468 25.3229L65.707 25.9883C64.9482 26.9847 63.9677 27.7906 62.8432 28.3421C61.7187 28.8935 60.4811 29.1752 59.2287 29.1649C57.9363 29.2188 56.664 28.8306 55.6219 28.0643C55.1651 27.7108 54.7999 27.2527 54.557 26.7287C54.3141 26.2046 54.2007 25.6299 54.2262 25.0528ZM64.9066 26.6336V26.2934L64.7815 26.1334V16.3184C64.8529 15.2941 64.5227 14.2822 63.861 13.497C63.5134 13.1627 63.0998 12.9045 62.6467 12.7392C62.1936 12.5738 61.711 12.5047 61.2297 12.5365C60.3539 12.4659 59.4811 12.7049 58.7635 13.2118C58.5185 13.4031 58.3202 13.6475 58.1833 13.9265C58.0464 14.2055 57.9745 14.5119 57.9731 14.8227V16.0483C57.9851 16.2366 57.9529 16.4252 57.8791 16.5989C57.8052 16.7727 57.6918 16.9267 57.5478 17.0488C57.2249 17.2926 56.8264 17.4148 56.4223 17.394C56.238 17.4065 56.0531 17.379 55.8804 17.3134C55.7077 17.2478 55.5512 17.1455 55.4218 17.0138C55.1771 16.7398 55.0511 16.38 55.0716 16.0133C55.0873 15.2474 55.3705 14.5112 55.872 13.9322C56.488 13.2074 57.2733 12.6455 58.1582 12.2964C59.2918 11.8387 60.5079 11.6206 61.73 11.6561C63.6109 11.6561 65.0166 12.0863 65.9321 12.9417C66.3947 13.3856 66.7572 13.9231 66.9953 14.5184C67.2334 15.1137 67.3417 15.753 67.3128 16.3934V26.5135C67.2813 26.847 67.3661 27.181 67.5529 27.459C67.6322 27.5503 67.7308 27.6227 67.8415 27.6712C67.9523 27.7196 68.0724 27.7428 68.1932 27.7392C68.3188 27.7528 68.4459 27.7403 68.5664 27.7024C68.6869 27.6645 68.7983 27.6021 68.8936 27.5191C69.0187 27.3891 69.1279 27.2447 69.2187 27.0888L69.3888 26.8987C69.419 26.8709 69.4545 26.8495 69.4932 26.8358C69.5319 26.822 69.5729 26.8162 69.6139 26.8187C69.6571 26.8155 69.7004 26.824 69.7392 26.8434C69.7779 26.8628 69.8107 26.8923 69.834 26.9288C69.8859 27.0217 69.9102 27.1276 69.9041 27.2339C69.8959 27.5449 69.7987 27.847 69.6239 28.1043C69.4172 28.4189 69.1352 28.6768 68.8035 28.8547C68.3943 29.0711 67.9355 29.1763 67.4728 29.1599C66.781 29.2075 66.0982 28.9811 65.5719 28.5296C65.3379 28.2754 65.1583 27.9761 65.0439 27.6501C64.9295 27.3241 64.8828 26.9783 64.9066 26.6336Z" fill="black"/>
<path d="M75.9616 12.571V26.6881C75.9467 26.9206 76.0219 27.15 76.1717 27.3284C76.3216 27.4951 76.5189 27.6121 76.737 27.6636L77.6725 27.8437C78.0527 27.9388 78.2478 28.1038 78.2478 28.344C78.2478 28.6591 78.0277 28.8142 77.5824 28.8142H71.6745C71.5157 28.8114 71.3617 28.7589 71.2342 28.6641C71.1826 28.6272 71.1407 28.5783 71.112 28.5217C71.0832 28.4651 71.0685 28.4024 71.0692 28.339C71.069 28.2812 71.0819 28.2241 71.107 28.1721C71.1322 28.1201 71.1688 28.0745 71.2142 28.0388C71.3443 27.9466 71.4928 27.8834 71.6495 27.8537L72.65 27.6536C72.8773 27.6135 73.0878 27.5074 73.2553 27.3485C73.408 27.1677 73.4835 26.9341 73.4654 26.6981V14.6571C73.4763 14.48 73.4289 14.3043 73.3303 14.1568C73.2727 14.0975 73.2033 14.0509 73.1267 14.0199C73.05 13.9889 72.9677 13.9742 72.8851 13.9767L71.3843 13.9417C71.2371 13.9436 71.0926 13.9018 70.9691 13.8216C70.9284 13.792 70.8957 13.7527 70.8739 13.7073C70.8521 13.6619 70.8418 13.6118 70.8441 13.5615C70.8439 13.5079 70.855 13.4548 70.8765 13.4057C70.898 13.3566 70.9296 13.3126 70.9691 13.2764C71.1045 13.1639 71.2635 13.0835 71.4343 13.0412L74.0156 12.1558C74.2614 12.0669 74.5119 11.9917 74.766 11.9307C74.9304 11.8941 75.0979 11.874 75.2663 11.8707C75.3623 11.8626 75.459 11.8744 75.5502 11.9054C75.6414 11.9364 75.7253 11.9859 75.7965 12.0507C75.9145 12.1975 75.9734 12.3831 75.9616 12.571ZM75.4614 16.2078L74.9011 15.6576L75.7615 14.9172C76.8384 13.9295 78.041 13.0884 79.3383 12.4159C80.272 11.9521 81.2974 11.7026 82.3398 11.6856C83.0055 11.6564 83.67 11.7644 84.2922 12.0028C84.9144 12.2411 85.4809 12.6048 85.9567 13.0713C86.4279 13.581 86.792 14.1802 87.0275 14.8333C87.2629 15.4863 87.3649 16.18 87.3274 16.8732V26.6331C87.3095 26.8907 87.392 27.1452 87.5575 27.3435C87.7314 27.5275 87.959 27.6518 88.2078 27.6986L89.0932 27.8787C89.2481 27.9094 89.3947 27.9725 89.5235 28.0638C89.5689 28.0995 89.6055 28.1451 89.6306 28.1971C89.6558 28.2491 89.6687 28.3062 89.6685 28.364C89.6699 28.4265 89.6566 28.4885 89.6297 28.545C89.6027 28.6015 89.5629 28.6508 89.5135 28.6891C89.3652 28.7852 89.1892 28.8292 89.0132 28.8142H83.0752C82.63 28.8142 82.4099 28.6591 82.4099 28.344C82.4099 28.1188 82.595 27.9538 82.9702 27.8437L83.9707 27.6636C84.2137 27.6264 84.4364 27.5062 84.601 27.3234C84.7421 27.1163 84.8107 26.8683 84.7961 26.6181V17.2534C84.7961 15.9194 84.4626 14.9189 83.7956 14.2519C83.4415 13.914 83.0228 13.6513 82.5646 13.4794C82.1064 13.3074 81.6181 13.2299 81.1292 13.2514C80.367 13.2722 79.6181 13.4564 78.9331 13.7916C77.9923 14.2466 77.1187 14.8291 76.3368 15.5225L75.4614 16.2078Z" fill="black"/>
<path d="M104.752 29.1647C105.534 29.4764 106.217 29.9952 106.728 30.6655C107.122 31.2576 107.326 31.9555 107.313 32.6665C107.313 34.1239 106.564 35.3095 105.067 36.2233C103.57 37.1371 101.437 37.5973 98.6687 37.604C97.084 37.6486 95.5016 37.4513 93.9764 37.0187C92.9661 36.7454 92.0484 36.2044 91.32 35.4529C90.7768 34.8523 90.4755 34.0716 90.4746 33.2618C90.4746 32.2313 90.9849 31.2825 92.0054 30.4154C93.0259 29.5483 94.8018 28.9546 97.3331 28.6345L97.8033 29.1747C96.0724 29.3548 94.7668 29.7901 93.8863 30.4804C93.4949 30.7392 93.1705 31.0874 92.9401 31.4962C92.7096 31.905 92.5795 32.3627 92.5607 32.8316C92.5631 33.3691 92.7021 33.8971 92.9646 34.3661C93.2272 34.8352 93.6046 35.2298 94.0614 35.5129C95.0619 36.21 96.7294 36.5585 99.0639 36.5585C100.187 36.5856 101.307 36.4491 102.391 36.1533C103.15 35.9594 103.842 35.5615 104.392 35.0027C104.826 34.5278 105.064 33.9055 105.057 33.2618C105.06 32.7813 104.903 32.3134 104.612 31.9311C104.168 31.4391 103.607 31.0674 102.981 30.8506C101.889 30.4449 100.757 30.1549 99.6042 29.9851C98.2474 29.7758 96.9092 29.4597 95.6022 29.0397C94.9248 28.8486 94.3036 28.4968 93.7913 28.0142C93.4908 27.6727 93.3254 27.2333 93.326 26.7785C93.3319 26.4291 93.4211 26.0861 93.5862 25.778C93.8031 25.3982 94.1129 25.0798 94.4866 24.8526C95.0288 24.5105 95.6238 24.2604 96.2475 24.1122L96.8378 24.3323C96.4311 24.5063 96.0611 24.7559 95.7473 25.0677C95.5494 25.2779 95.4371 25.5544 95.4321 25.8431C95.4408 26.1069 95.55 26.3574 95.7373 26.5434C96.1756 26.8956 96.6891 27.1421 97.238 27.2638C98.4632 27.6189 99.7097 27.8963 100.97 28.0942C102.271 28.2881 103.542 28.6479 104.752 29.1647ZM104.907 21.751C104.256 22.7803 103.338 23.6137 102.251 24.1622C101.063 24.7522 99.7498 25.0473 98.4236 25.0227C97.1218 25.0431 95.8345 24.7479 94.6717 24.1622C93.6205 23.6352 92.7319 22.833 92.1004 21.841C91.4748 20.8562 91.1481 19.7111 91.16 18.5444C91.1289 17.3002 91.4556 16.0732 92.1011 15.0092C92.7467 13.9451 93.684 13.0886 94.8018 12.5414C95.989 11.9416 97.3037 11.6378 98.6337 11.6559C99.9372 11.6289 101.227 11.9226 102.391 12.5113C103.436 13.0456 104.321 13.8463 104.957 14.8325C105.584 15.82 105.909 16.9694 105.892 18.1392C105.922 19.4079 105.581 20.6577 104.912 21.736L104.907 21.751ZM95.7473 13.3818C95.0763 13.8337 94.5637 14.4845 94.2815 15.2427C93.9369 16.1726 93.7903 17.1643 93.8513 18.1542C93.8699 19.2214 94.1118 20.2728 94.5617 21.2407C94.9396 22.0707 95.545 22.7766 96.3075 23.2768C97.0742 23.7599 97.9681 24.0021 98.8738 23.9721C99.4952 23.9917 100.112 23.8663 100.677 23.6058C101.241 23.3453 101.737 22.9569 102.125 22.4714C102.876 21.5109 103.221 20.1769 103.161 18.4694C103.178 16.9261 102.662 15.4244 101.7 14.2172C101.271 13.6996 100.727 13.2887 100.111 13.017C99.4956 12.7453 98.8255 12.6202 98.1535 12.6514C97.298 12.6595 96.4629 12.913 95.7473 13.3818ZM102.781 12.5864C103.179 11.8651 103.728 11.2387 104.392 10.7505C104.939 10.3495 105.599 10.1292 106.278 10.1201C106.808 10.1021 107.326 10.2802 107.733 10.6204C107.915 10.773 108.06 10.9648 108.157 11.1814C108.254 11.398 108.301 11.6338 108.294 11.871C108.317 12.2297 108.21 12.5847 107.993 12.8715C107.896 12.9923 107.771 13.0887 107.629 13.1529C107.488 13.2172 107.333 13.2476 107.178 13.2417C106.949 13.2541 106.724 13.179 106.548 13.0316C106.382 12.8838 106.236 12.7157 106.112 12.5314C105.988 12.3523 105.847 12.1848 105.692 12.0311C105.527 11.8826 105.309 11.8053 105.087 11.816C104.742 11.8281 104.413 11.9609 104.157 12.1912C103.678 12.6654 103.27 13.2063 102.946 13.797L102.186 13.5619L102.781 12.5864Z" fill="black"/>
<path d="M113.601 3.15171V26.6886C113.588 26.9231 113.661 27.1543 113.806 27.3389C113.962 27.502 114.168 27.6093 114.391 27.644L115.347 27.8241C115.505 27.8564 115.655 27.9212 115.787 28.0142C115.837 28.0495 115.878 28.0969 115.905 28.1519C115.932 28.207 115.945 28.2681 115.942 28.3294C115.942 28.3923 115.928 28.4544 115.9 28.5109C115.872 28.5673 115.832 28.6165 115.782 28.6545C115.632 28.7464 115.457 28.79 115.282 28.7796H109.314C109.149 28.7894 108.986 28.7456 108.848 28.6545C108.797 28.6176 108.755 28.5688 108.726 28.5122C108.697 28.4556 108.683 28.3929 108.683 28.3294C108.683 28.2716 108.696 28.2146 108.721 28.1626C108.746 28.1106 108.783 28.065 108.828 28.0292C108.957 27.9379 109.104 27.8748 109.259 27.8441L110.259 27.644C110.486 27.604 110.697 27.4978 110.864 27.3389C111.013 27.1564 111.087 26.9236 111.069 26.6886V5.24276C111.085 5.05746 111.037 4.87237 110.934 4.71749C110.877 4.65954 110.808 4.61374 110.733 4.5828C110.657 4.55187 110.576 4.53643 110.494 4.5374L108.993 4.50239C108.848 4.50565 108.705 4.4656 108.583 4.38733C108.542 4.35654 108.509 4.31646 108.486 4.27038C108.464 4.2243 108.452 4.17352 108.453 4.1222C108.454 4.06831 108.466 4.01522 108.489 3.96618C108.511 3.91715 108.543 3.8732 108.583 3.83705C108.717 3.72239 108.877 3.64174 109.048 3.60194L111.66 2.72149C111.907 2.63035 112.16 2.55187 112.415 2.48637C112.578 2.4403 112.746 2.41508 112.915 2.41133C113.012 2.40364 113.11 2.41661 113.201 2.44938C113.292 2.48216 113.376 2.53398 113.446 2.60143C113.564 2.75908 113.62 2.95536 113.601 3.15171Z" fill="black"/>
<path d="M132.266 18.369C132.278 18.5663 132.245 18.7637 132.169 18.9464C132.094 19.1292 131.978 19.2926 131.831 19.4245C131.463 19.6939 131.011 19.8234 130.555 19.7897H118.76V18.8542H128.7C129.285 18.8542 129.58 18.6041 129.58 18.0989C129.652 16.6904 129.221 15.3024 128.364 14.1819C127.973 13.7028 127.475 13.3211 126.911 13.0668C126.347 12.8124 125.731 12.6924 125.113 12.7162C124.091 12.6966 123.09 13.0091 122.261 13.6066C121.414 14.2422 120.754 15.0941 120.35 16.0728C119.874 17.2355 119.643 18.4837 119.67 19.7397C119.67 22.1876 120.27 24.0652 121.471 25.3725C122.058 26.0199 122.78 26.5312 123.585 26.8708C124.39 27.2103 125.26 27.37 126.133 27.3385C127.341 27.3718 128.529 27.0311 129.535 26.363C130.427 25.7965 131.086 24.9283 131.391 23.9168C131.448 23.7848 131.532 23.6657 131.636 23.5666C131.713 23.4981 131.813 23.4622 131.916 23.4666C131.978 23.4634 132.04 23.4765 132.095 23.5046C132.15 23.5327 132.197 23.5748 132.231 23.6267C132.298 23.7471 132.326 23.885 132.311 24.0219C132.214 24.973 131.842 25.8752 131.241 26.6182C130.59 27.4231 129.757 28.0611 128.81 28.4791C127.749 28.9553 126.596 29.1926 125.433 29.1745C123.924 29.2095 122.433 28.8454 121.111 28.1189C119.883 27.4299 118.883 26.3971 118.234 25.1474C117.536 23.7516 117.193 22.2053 117.234 20.6452C117.204 19.0653 117.547 17.5006 118.234 16.0778C118.873 14.7639 119.859 13.6497 121.086 12.8562C122.386 12.036 123.901 11.6183 125.438 11.6556C126.682 11.6285 127.913 11.9232 129.01 12.5111C130.015 13.0594 130.849 13.877 131.416 14.8722C132.003 15.9423 132.297 17.1488 132.266 18.369Z" fill="black"/>
<path d="M133.807 20.7307C133.76 19.048 134.138 17.3808 134.907 15.8833C135.58 14.588 136.598 13.5041 137.849 12.7517C139.082 12.0162 140.495 11.6354 141.931 11.6511C143.292 11.6318 144.628 12.0146 145.773 12.7517C146.934 13.5121 147.865 14.5762 148.464 15.8282L147.924 16.6236C147.349 15.513 146.5 14.5677 145.457 13.8773C144.514 13.2481 143.405 12.9122 142.271 12.9118C141.237 12.903 140.223 13.1968 139.354 13.7572C138.436 14.3728 137.717 15.2418 137.283 16.2585C136.741 17.5665 136.483 18.9752 136.528 20.3905C136.489 21.76 136.734 23.1227 137.248 24.3926C137.659 25.4024 138.354 26.2713 139.249 26.8938C140.095 27.4601 141.093 27.7551 142.111 27.7392C143.205 27.7347 144.276 27.419 145.197 26.8288C146.261 26.1415 147.166 25.236 147.854 24.1724L148.214 25.0379C147.41 26.279 146.336 27.3223 145.072 28.0894C143.896 28.8007 142.545 29.1729 141.17 29.165C139.824 29.1871 138.502 28.8074 137.373 28.0744C136.249 27.3271 135.347 26.2901 134.762 25.0729C134.11 23.7197 133.782 22.2328 133.807 20.7307ZM147.133 25.8983L147.078 25.7332V5.22291C147.094 5.03896 147.05 4.85491 146.953 4.69764C146.894 4.63845 146.824 4.59194 146.747 4.56096C146.669 4.52999 146.586 4.51521 146.503 4.51755L145.002 4.48253C144.859 4.48603 144.717 4.44591 144.597 4.36747C144.56 4.33422 144.53 4.2933 144.51 4.24753C144.491 4.20176 144.481 4.15223 144.482 4.10234C144.482 4.04877 144.493 3.99581 144.515 3.94675C144.536 3.8977 144.568 3.8536 144.607 3.8172C144.738 3.70641 144.892 3.62609 145.057 3.58208L147.669 2.70164C147.916 2.61049 148.168 2.53202 148.424 2.46652C148.587 2.42101 148.755 2.39581 148.924 2.39148C149.016 2.38681 149.108 2.40129 149.194 2.43401C149.28 2.46674 149.359 2.51698 149.424 2.58158C149.546 2.7382 149.607 2.93384 149.595 3.13185V26.6687C149.582 26.9032 149.654 27.1344 149.8 27.319C149.962 27.4852 150.175 27.5925 150.405 27.6242L151.34 27.8043C151.505 27.836 151.662 27.9007 151.801 27.9944C151.85 28.0305 151.889 28.0782 151.915 28.1332C151.941 28.1881 151.954 28.2487 151.951 28.3095C151.951 28.3735 151.936 28.4366 151.906 28.4934C151.877 28.5501 151.833 28.5986 151.781 28.6347C151.631 28.7265 151.456 28.7702 151.28 28.7598H148.509C148.319 28.7744 148.128 28.7514 147.947 28.6922C147.766 28.6329 147.598 28.5386 147.453 28.4146C147.323 28.2615 147.225 28.0839 147.165 27.8923C147.105 27.7007 147.084 27.4989 147.103 27.299L147.133 25.8983Z" fill="#0078D4"/>
<path d="M158.318 12.5717V26.6888C158.302 26.9236 158.376 27.1556 158.523 27.3391C158.679 27.5022 158.885 27.6095 159.108 27.6442L160.064 27.8243C160.222 27.8577 160.371 27.9223 160.504 28.0144C160.554 28.0503 160.594 28.0978 160.621 28.1527C160.648 28.2077 160.661 28.2684 160.659 28.3296C160.66 28.3931 160.645 28.4558 160.616 28.5124C160.587 28.569 160.546 28.6178 160.494 28.6548C160.344 28.7478 160.169 28.7916 159.994 28.7798H154.031C153.865 28.789 153.7 28.7452 153.56 28.6548C153.51 28.6167 153.47 28.5675 153.442 28.5111C153.414 28.4546 153.4 28.3925 153.4 28.3296C153.399 28.2716 153.411 28.2142 153.437 28.162C153.462 28.1098 153.499 28.0644 153.545 28.0294C153.674 27.9381 153.821 27.8751 153.976 27.8443L154.976 27.6442C155.203 27.6042 155.414 27.498 155.581 27.3391C155.731 27.1566 155.804 26.9238 155.787 26.6888V14.6577C155.797 14.4807 155.75 14.3049 155.651 14.1575C155.595 14.0978 155.527 14.0508 155.451 14.0198C155.375 13.9887 155.293 13.9743 155.211 13.9774L153.71 13.9423C153.563 13.9433 153.419 13.9016 153.295 13.8223C153.255 13.7926 153.222 13.7533 153.2 13.7079C153.178 13.6625 153.168 13.6125 153.17 13.5622C153.17 13.5085 153.181 13.4555 153.203 13.4064C153.224 13.3573 153.256 13.3132 153.295 13.277C153.432 13.1635 153.593 13.0831 153.766 13.0419L156.377 12.1564C156.687 12.0514 156.942 11.9764 157.132 11.9313C157.296 11.8942 157.464 11.874 157.632 11.8713C157.729 11.8629 157.825 11.8746 157.917 11.9056C158.008 11.9366 158.092 11.9863 158.163 12.0514C158.277 12.1996 158.332 12.385 158.318 12.5717ZM156.642 7.8893C156.098 7.91063 155.568 7.71647 155.166 7.34902C154.977 7.17531 154.827 6.96308 154.727 6.72663C154.627 6.49018 154.579 6.23501 154.586 5.97833C154.581 5.72482 154.63 5.47311 154.73 5.24013C154.83 5.00715 154.979 4.79831 155.166 4.62765C155.568 4.2602 156.098 4.06605 156.642 4.08738C157.194 4.06374 157.733 4.25776 158.143 4.62765C158.332 4.79723 158.482 5.00575 158.583 5.2389C158.684 5.47205 158.734 5.7243 158.728 5.97833C158.735 6.23552 158.687 6.49123 158.586 6.72785C158.485 6.96447 158.334 7.17639 158.143 7.34902C157.733 7.71891 157.194 7.91293 156.642 7.8893Z" fill="#0078D4"/>
<path d="M166.832 12.5712V26.6883C166.817 26.9208 166.893 27.1501 167.042 27.3286C167.2 27.4915 167.405 27.6015 167.628 27.6438L168.563 27.8239C168.948 27.9189 169.139 28.084 169.139 28.3241C169.139 28.6393 168.918 28.7943 168.473 28.7943H162.55C162.384 28.8035 162.22 28.7597 162.08 28.6693C162.029 28.6321 161.988 28.583 161.96 28.5264C161.932 28.4698 161.918 28.4072 161.92 28.3441C161.919 28.2867 161.931 28.2298 161.955 28.1777C161.979 28.1257 162.015 28.0799 162.06 28.044C162.191 27.9527 162.339 27.8896 162.495 27.8589L163.496 27.6588C163.722 27.6198 163.931 27.5134 164.096 27.3536C164.249 27.1729 164.324 26.9392 164.306 26.7033V14.6572C164.317 14.4802 164.27 14.3044 164.171 14.157C164.115 14.0976 164.046 14.0508 163.97 14.0197C163.894 13.9887 163.813 13.9741 163.731 13.9769L162.23 13.9419C162.083 13.9437 161.938 13.9019 161.815 13.8218C161.774 13.7921 161.741 13.7528 161.72 13.7074C161.698 13.6621 161.688 13.612 161.69 13.5617C161.69 13.508 161.701 13.455 161.722 13.4059C161.744 13.3568 161.775 13.3127 161.815 13.2765C161.951 13.1631 162.112 13.0826 162.285 13.0414L164.896 12.156C165.14 12.0672 165.389 11.992 165.642 11.9308C165.806 11.8948 165.974 11.8747 166.142 11.8708C166.238 11.8627 166.335 11.8746 166.426 11.9055C166.517 11.9365 166.601 11.986 166.672 12.0509C166.788 12.1984 166.845 12.3839 166.832 12.5712ZM166.332 16.208L165.782 15.6577L166.647 14.9173C167.726 13.9343 168.926 13.0937 170.219 12.4161C171.151 11.9487 172.178 11.699 173.221 11.6857C173.885 11.6561 174.549 11.7638 175.171 12.0022C175.792 12.2406 176.358 12.6046 176.832 13.0714C177.301 13.5825 177.663 14.1821 177.897 14.835C178.13 15.4879 178.231 16.1809 178.193 16.8733V26.6332C178.178 26.8898 178.262 27.1424 178.428 27.3386C178.606 27.5163 178.829 27.6411 179.074 27.6988L179.939 27.8789C180.299 27.9722 180.479 28.1273 180.479 28.3441C180.479 28.6593 180.269 28.8143 179.849 28.8143H173.911C173.466 28.8143 173.246 28.6593 173.246 28.3441C173.246 28.119 173.431 27.9539 173.806 27.8439L174.806 27.6638C175.049 27.6265 175.272 27.5063 175.437 27.3236C175.578 27.1165 175.646 26.8684 175.632 26.6182V17.2535C175.632 15.9078 175.302 14.9023 174.631 14.252C174.28 13.9135 173.863 13.6502 173.406 13.4782C172.949 13.3062 172.462 13.2291 171.975 13.2515C171.219 13.2721 170.477 13.4564 169.799 13.7918C168.862 14.254 167.989 14.8358 167.203 15.5227L166.332 16.208ZM177.678 16.208L177.098 15.6577L177.963 14.9173C179.043 13.934 180.245 13.0934 181.54 12.4161C182.472 11.9482 183.498 11.6985 184.541 11.6857C185.205 11.6562 185.869 11.764 186.489 12.0024C187.11 12.2408 187.675 12.6048 188.148 13.0714C188.618 13.5818 188.98 14.1813 189.214 14.8344C189.448 15.4875 189.548 16.1808 189.509 16.8733V26.6332C189.495 26.8929 189.583 27.1477 189.754 27.3436C189.93 27.5277 190.159 27.6519 190.409 27.6988L191.275 27.8789C191.429 27.9096 191.576 27.9727 191.705 28.064C191.751 28.0989 191.788 28.1443 191.814 28.1965C191.839 28.2487 191.851 28.3062 191.85 28.3641C191.851 28.4261 191.838 28.4876 191.812 28.5439C191.786 28.6003 191.748 28.65 191.7 28.6893C191.552 28.7861 191.376 28.8301 191.2 28.8143H185.242C184.796 28.8143 184.571 28.6593 184.571 28.3441C184.571 28.119 184.761 27.9539 185.132 27.8439L186.132 27.6638C186.376 27.629 186.599 27.5084 186.762 27.3236C186.905 27.1171 186.976 26.869 186.962 26.6182V17.2535C186.962 15.9195 186.629 14.919 185.962 14.252C185.61 13.9135 185.194 13.6502 184.737 13.4782C184.28 13.3062 183.793 13.2291 183.306 13.2515C182.548 13.2714 181.804 13.4557 181.125 13.7918C180.189 14.253 179.318 14.8349 178.533 15.5227L177.678 16.208Z" fill="#0078D4"/>
<path d="M208.074 18.3689C208.087 18.5659 208.055 18.7631 207.98 18.9459C207.906 19.1287 207.791 19.2923 207.644 19.4245C207.274 19.6938 206.82 19.8232 206.364 19.7896H194.568V18.8542H204.513C205.098 18.8542 205.393 18.604 205.393 18.0988C205.465 16.6904 205.034 15.3023 204.177 14.1818C203.786 13.7027 203.288 13.321 202.724 13.0667C202.16 12.8123 201.544 12.6923 200.926 12.7161C199.901 12.6944 198.896 13.0069 198.064 13.6065C197.216 14.2407 196.556 15.0931 196.153 16.0728C195.676 17.235 195.442 18.4832 195.468 19.7396C195.468 22.1875 196.068 24.0651 197.269 25.3725C197.858 26.0186 198.581 26.529 199.387 26.8684C200.192 27.2079 201.062 27.3683 201.936 27.3384C203.144 27.3711 204.332 27.0304 205.338 26.3629C206.229 25.7951 206.887 24.9274 207.194 23.9167C207.251 23.7847 207.335 23.6656 207.439 23.5665C207.514 23.4987 207.613 23.4629 207.714 23.4665C207.776 23.4623 207.838 23.4749 207.894 23.5031C207.949 23.5313 207.996 23.574 208.029 23.6266C208.098 23.7464 208.127 23.8844 208.114 24.0218C208.016 24.9733 207.642 25.8754 207.039 26.6181C206.39 27.4246 205.556 28.0629 204.608 28.479C203.547 28.9561 202.394 29.1935 201.231 29.1744C199.723 29.208 198.232 28.844 196.909 28.1188C195.683 27.4281 194.686 26.3956 194.037 25.1473C193.337 23.7522 192.994 22.2054 193.037 20.6451C193.01 19.0654 193.352 17.5014 194.037 16.0778C194.678 14.7639 195.666 13.6499 196.894 12.8561C198.193 12.0366 199.705 11.6189 201.241 11.6555C202.482 11.6288 203.708 11.9217 204.803 12.506C205.807 13.0558 206.64 13.8731 207.209 14.8672C207.802 15.9372 208.101 17.1456 208.074 18.3689Z" fill="#0078D4"/>
<path d="M214.682 12.5716V26.6887C214.667 26.9212 214.742 27.1506 214.892 27.329C215.05 27.4919 215.254 27.602 215.477 27.6442L216.413 27.8243C216.798 27.9193 216.988 28.0844 216.988 28.3245C216.988 28.6397 216.768 28.7948 216.323 28.7948H210.4C210.234 28.8039 210.069 28.7601 209.93 28.6697C209.879 28.6316 209.839 28.5825 209.811 28.526C209.783 28.4696 209.769 28.4074 209.769 28.3445C209.768 28.2871 209.78 28.2302 209.805 28.1782C209.829 28.1261 209.865 28.0804 209.91 28.0444C210.04 27.9531 210.188 27.89 210.345 27.8593L211.345 27.6592C211.572 27.6202 211.781 27.5139 211.946 27.354C212.098 27.1733 212.174 26.9397 212.156 26.7037V14.6576C212.167 14.4806 212.119 14.3049 212.021 14.1574C211.964 14.098 211.896 14.0512 211.82 14.0202C211.744 13.9891 211.662 13.9745 211.58 13.9773L210.08 13.9423C209.932 13.9442 209.788 13.9024 209.664 13.8222C209.624 13.7926 209.591 13.7533 209.569 13.7079C209.547 13.6625 209.537 13.6124 209.539 13.5621C209.539 13.5085 209.55 13.4554 209.572 13.4063C209.593 13.3572 209.625 13.3132 209.664 13.2769C209.801 13.1635 209.962 13.083 210.135 13.0418L212.746 12.1564C212.99 12.0676 213.239 11.9924 213.491 11.9313C213.656 11.8952 213.823 11.8751 213.992 11.8712C214.088 11.8632 214.184 11.875 214.276 11.906C214.367 11.937 214.451 11.9864 214.522 12.0513C214.638 12.1988 214.695 12.3843 214.682 12.5716ZM214.182 16.2084L213.621 15.6581L214.487 14.9178C215.561 13.9292 216.762 13.088 218.059 12.4165C218.992 11.9527 220.018 11.7032 221.06 11.6861C221.727 11.6575 222.392 11.7657 223.015 12.004C223.637 12.2423 224.205 12.6057 224.682 13.0718C225.153 13.5819 225.516 14.1812 225.751 14.8343C225.985 15.4873 226.086 16.1809 226.048 16.8738V26.6337C226.031 26.892 226.115 27.1466 226.283 27.344C226.455 27.53 226.683 27.6547 226.933 27.6992L227.814 27.8793C227.968 27.91 228.115 27.9731 228.244 28.0644C228.289 28.1001 228.326 28.1457 228.351 28.1977C228.376 28.2497 228.389 28.3068 228.389 28.3645C228.39 28.4271 228.377 28.4891 228.35 28.5456C228.323 28.602 228.283 28.6514 228.234 28.6897C228.086 28.7858 227.91 28.8298 227.734 28.8148H221.811C221.37 28.8148 221.145 28.6597 221.145 28.3445C221.145 28.1194 221.33 27.9543 221.705 27.8443L222.706 27.6642C222.949 27.6269 223.172 27.5068 223.336 27.324C223.477 27.1169 223.546 26.8689 223.531 26.6187V17.254C223.531 15.9199 223.198 14.9194 222.531 14.2524C222.177 13.9146 221.758 13.6519 221.3 13.4799C220.842 13.308 220.353 13.2305 219.865 13.2519C219.102 13.2734 218.354 13.4576 217.668 13.7922C216.729 14.2496 215.856 14.8318 215.072 15.5231L214.182 16.2084Z" fill="#0078D4"/>
<path d="M235.318 12.6973C234.474 12.656 233.646 12.9367 233.001 13.4827C232.714 13.7412 232.487 14.0599 232.336 14.4161C232.186 14.7723 232.116 15.1573 232.131 15.5437C232.125 16.0439 232.258 16.5359 232.516 16.9644C232.857 17.4555 233.319 17.8501 233.857 18.11C234.709 18.5329 235.603 18.8681 236.523 19.1105C237.752 19.3873 238.933 19.8477 240.025 20.4762C240.789 20.9105 241.428 21.5342 241.881 22.2871C242.247 22.9574 242.436 23.7096 242.431 24.4732C242.451 25.1141 242.326 25.7512 242.066 26.3375C241.807 26.9237 241.418 27.444 240.93 27.8599C239.93 28.7354 238.499 29.1756 236.663 29.1756C236.078 29.1899 235.494 29.1226 234.927 28.9755C234.531 28.8674 234.14 28.7388 233.757 28.5903C233.486 28.475 233.196 28.4106 232.901 28.4002C232.808 28.3949 232.715 28.41 232.629 28.4446C232.543 28.4792 232.465 28.5323 232.401 28.6003C232.286 28.7304 232.181 28.8604 232.086 28.9855C232.035 29.05 231.97 29.1011 231.895 29.1343C231.82 29.1674 231.738 29.1816 231.656 29.1756C231.602 29.1777 231.548 29.1686 231.499 29.1488C231.449 29.129 231.403 29.0989 231.366 29.0605C231.269 28.937 231.19 28.8006 231.13 28.6553L229.69 24.6933C229.61 24.5021 229.583 24.2933 229.61 24.088C229.629 24.0094 229.666 23.9361 229.717 23.8735C229.769 23.8108 229.833 23.7604 229.907 23.726C229.98 23.6915 230.06 23.6737 230.141 23.6741C230.222 23.6744 230.302 23.6928 230.375 23.7278C230.518 23.8203 230.635 23.9477 230.715 24.098C231.147 25.0045 231.729 25.8315 232.436 26.5443C233.001 27.1003 233.685 27.5195 234.437 27.7699C235.138 27.9995 235.871 28.116 236.608 28.1151C237.859 28.1151 238.796 27.8449 239.42 27.3046C239.908 26.8595 240.227 26.2593 240.324 25.6057C240.421 24.9521 240.288 24.2852 239.95 23.7178C239.587 23.1909 239.096 22.7642 238.524 22.4772C237.622 22.0051 236.664 21.6472 235.673 21.4117C234.522 21.1416 233.413 20.7176 232.376 20.151C231.644 19.7542 231.036 19.1619 230.62 18.4402C230.247 17.7383 230.056 16.9539 230.065 16.159C230.047 15.3388 230.269 14.5313 230.703 13.8354C231.138 13.1396 231.766 12.5858 232.511 12.2421C233.389 11.8343 234.35 11.6341 235.318 11.6568C235.895 11.6428 236.472 11.7153 237.028 11.8719C237.407 11.9901 237.776 12.1356 238.134 12.3071C238.365 12.4339 238.621 12.5074 238.884 12.5222C238.987 12.5315 239.089 12.517 239.185 12.4796C239.28 12.4423 239.366 12.3832 239.435 12.3071C239.545 12.1604 239.65 12.0153 239.75 11.8719C239.791 11.8049 239.85 11.7498 239.919 11.7121C239.988 11.6744 240.066 11.6553 240.145 11.6568C240.241 11.6583 240.333 11.6938 240.405 11.7568C240.5 11.859 240.559 11.9887 240.575 12.127L241.766 15.8739C241.843 16.1079 241.882 16.3528 241.881 16.5993C241.882 16.6972 241.852 16.793 241.795 16.8729C241.739 16.9528 241.658 17.0129 241.566 17.0445C241.493 17.0752 241.413 17.0845 241.335 17.0712C241.257 17.0579 241.184 17.0226 241.126 16.9694C240.964 16.8156 240.833 16.6322 240.74 16.4292C240.241 15.2603 239.407 14.2649 238.344 13.5677C237.435 13.0044 236.387 12.7032 235.318 12.6973Z" fill="#0078D4"/>
<path d="M249.029 12.5718V26.6889C249.013 26.9237 249.087 27.1558 249.234 27.3392C249.387 27.5126 249.596 27.6275 249.824 27.6644L250.78 27.8445C250.938 27.8779 251.087 27.9425 251.22 28.0346C251.269 28.0707 251.308 28.1184 251.334 28.1734C251.361 28.2283 251.373 28.2889 251.37 28.3497C251.372 28.4128 251.358 28.4754 251.33 28.532C251.302 28.5887 251.261 28.6377 251.21 28.6749C251.06 28.7674 250.885 28.8111 250.71 28.8H244.742C244.576 28.8091 244.411 28.7653 244.271 28.6749C244.221 28.6369 244.181 28.5877 244.153 28.5312C244.125 28.4748 244.111 28.4126 244.111 28.3497C244.11 28.2918 244.122 28.2343 244.148 28.1821C244.173 28.13 244.21 28.0845 244.256 28.0496C244.385 27.9573 244.531 27.8942 244.687 27.8645L245.687 27.6644C245.914 27.6243 246.125 27.5182 246.292 27.3592C246.441 27.1767 246.515 26.944 246.497 26.7089V14.6578C246.508 14.4808 246.461 14.3051 246.362 14.1576C246.306 14.0982 246.237 14.0514 246.162 14.0204C246.086 13.9893 246.004 13.9747 245.922 13.9775L244.421 13.9425C244.274 13.9444 244.13 13.9026 244.006 13.8224C243.966 13.7928 243.933 13.7535 243.911 13.7081C243.889 13.6627 243.879 13.6126 243.881 13.5623C243.881 13.5087 243.892 13.4556 243.914 13.4065C243.935 13.3574 243.967 13.3134 244.006 13.2772C244.143 13.1637 244.304 13.0832 244.476 13.042L247.088 12.1566C247.398 12.0515 247.653 11.9765 247.843 11.9315C248.007 11.8943 248.175 11.8742 248.343 11.8714C248.439 11.8634 248.536 11.8752 248.627 11.9062C248.719 11.9372 248.802 11.9867 248.874 12.0515C248.988 12.1997 249.043 12.3852 249.029 12.5718ZM247.353 7.88944C246.809 7.91077 246.279 7.71662 245.877 7.34917C245.693 7.17321 245.548 6.95997 245.452 6.72363C245.356 6.48729 245.312 6.23328 245.322 5.97848C245.317 5.72496 245.366 5.47325 245.466 5.24028C245.566 5.0073 245.715 4.79845 245.902 4.6278C246.304 4.26034 246.834 4.0662 247.378 4.08753C247.914 4.085 248.431 4.28718 248.824 4.65281C249.013 4.82239 249.163 5.03091 249.264 5.26406C249.365 5.49721 249.415 5.74945 249.409 6.00349C249.413 6.2565 249.362 6.50738 249.261 6.73942C249.16 6.97145 249.011 7.17932 248.824 7.34917C248.421 7.71171 247.894 7.9052 247.353 7.88944Z" fill="#0078D4"/>
<path d="M261.145 11.6559C262.703 11.624 264.242 12.0091 265.602 12.7714C266.878 13.5018 267.929 14.5697 268.638 15.858C269.362 17.2584 269.739 18.8116 269.739 20.3878C269.739 21.9639 269.362 23.5172 268.638 24.9176C267.926 26.2136 266.87 27.2884 265.587 28.0241C264.214 28.7971 262.66 29.1891 261.085 29.1597C259.528 29.1914 257.991 28.8025 256.637 28.0341C255.362 27.2934 254.312 26.2195 253.601 24.9276C252.877 23.529 252.5 21.9774 252.5 20.4028C252.5 18.8282 252.877 17.2766 253.601 15.878C254.314 14.5834 255.372 13.5116 256.657 12.7814C258.027 12.0157 259.576 11.6273 261.145 11.6559ZM262.405 27.9191C263.495 27.8059 264.52 27.3446 265.327 26.6034C266.116 25.8184 266.66 24.8207 266.892 23.732C267.182 22.3771 267.206 20.9788 266.963 19.6149C266.785 18.211 266.321 16.8588 265.597 15.6429C264.999 14.6523 264.131 13.8524 263.096 13.3367C262.07 12.8596 260.925 12.7011 259.809 12.8815C258.718 12.9903 257.694 13.4543 256.892 14.2022C256.103 14.9873 255.559 15.9849 255.327 17.0736C255.033 18.4245 255.007 19.82 255.252 21.1807C255.427 22.5895 255.896 23.9459 256.627 25.1627C257.223 26.1547 258.091 26.9551 259.129 27.4688C260.15 27.947 261.291 28.109 262.405 27.9341V27.9191Z" fill="#0078D4"/>
<path d="M276.382 12.571V26.6882C276.368 26.9197 276.441 27.1481 276.587 27.3285C276.747 27.4893 276.95 27.599 277.172 27.6436L278.113 27.8237C278.493 27.9188 278.688 28.0839 278.688 28.324C278.688 28.6391 278.463 28.7942 278.023 28.7942H272.095C271.93 28.804 271.767 28.7602 271.63 28.6691C271.578 28.6322 271.536 28.5833 271.507 28.5267C271.479 28.4701 271.464 28.4075 271.465 28.344C271.464 28.2862 271.477 28.2292 271.502 28.1772C271.528 28.1252 271.564 28.0796 271.61 28.0438C271.738 27.9525 271.885 27.8894 272.04 27.8587L273.04 27.6586C273.268 27.6186 273.478 27.5124 273.646 27.3535C273.797 27.172 273.87 26.9384 273.851 26.7032V14.6571C273.862 14.4801 273.814 14.3043 273.716 14.1568C273.659 14.0972 273.591 14.0502 273.515 14.0192C273.439 13.9881 273.357 13.9736 273.276 13.9767L271.775 13.9417C271.629 13.9438 271.486 13.902 271.365 13.8217C271.323 13.7922 271.29 13.7531 271.267 13.7078C271.244 13.6624 271.233 13.6122 271.234 13.5615C271.235 13.5076 271.247 13.4544 271.27 13.4053C271.292 13.3563 271.324 13.3124 271.365 13.2764C271.499 13.1629 271.658 13.0823 271.83 13.0413L274.436 12.1558C274.682 12.0669 274.932 11.9918 275.186 11.9307C275.351 11.8942 275.518 11.874 275.687 11.8707C275.783 11.8626 275.879 11.8744 275.971 11.9054C276.062 11.9364 276.146 11.9859 276.217 12.0508C276.335 12.1976 276.394 12.3831 276.382 12.571ZM275.882 16.2079L275.337 15.6576L276.197 14.9172C277.274 13.9295 278.476 13.0884 279.774 12.416C280.707 11.9521 281.733 11.7026 282.775 11.6856C283.442 11.6564 284.107 11.7643 284.73 12.0026C285.353 12.241 285.92 12.6047 286.397 13.0713C286.868 13.5811 287.232 14.1802 287.468 14.8333C287.703 15.4863 287.805 16.18 287.768 16.8732V26.6331C287.75 26.8907 287.832 27.1453 287.998 27.3435C288.172 27.5275 288.399 27.6518 288.648 27.6987L289.529 27.8787C289.685 27.9085 289.834 27.9716 289.964 28.0638C290.009 28.0996 290.046 28.1452 290.071 28.1972C290.096 28.2492 290.109 28.3062 290.109 28.364C290.109 28.4264 290.095 28.488 290.069 28.5443C290.042 28.6006 290.003 28.6501 289.954 28.6892C289.806 28.7852 289.63 28.8292 289.454 28.8142H283.496C283.05 28.8142 282.83 28.6591 282.83 28.344C282.83 28.1189 283.015 27.9538 283.386 27.8437L284.386 27.6636C284.63 27.6288 284.853 27.5082 285.016 27.3235C285.161 27.118 285.232 26.8692 285.217 26.6181V17.2534C285.217 15.9194 284.883 14.9189 284.216 14.2519C283.863 13.9142 283.445 13.6515 282.988 13.4796C282.53 13.3076 282.043 13.23 281.555 13.2514C280.791 13.2728 280.04 13.457 279.354 13.7917C278.415 14.248 277.543 14.8304 276.762 15.5225L275.882 16.2079Z" fill="#0078D4"/>
<path d="M294.537 12.6567C294.784 12.8999 294.979 13.1906 295.111 13.5113C295.242 13.832 295.308 14.176 295.303 14.5226C295.318 14.8762 295.262 15.2292 295.137 15.5604C295.013 15.8916 294.822 16.1941 294.577 16.4497C294.333 16.7054 294.039 16.9088 293.713 17.0478C293.388 17.1868 293.038 17.2584 292.684 17.2584C292.33 17.2584 291.98 17.1868 291.654 17.0478C291.329 16.9088 291.035 16.7054 290.79 16.4497C290.546 16.1941 290.355 15.8916 290.23 15.5604C290.106 15.2292 290.05 14.8762 290.065 14.5226C290.062 14.175 290.129 13.8303 290.264 13.5095C290.398 13.1888 290.596 12.8986 290.845 12.6567C291.088 12.4127 291.377 12.2191 291.695 12.087C292.013 11.955 292.354 11.887 292.699 11.887C293.043 11.887 293.384 11.955 293.702 12.087C294.02 12.2191 294.309 12.4127 294.552 12.6567H294.537ZM291.121 12.9518C290.811 13.2631 290.6 13.6592 290.514 14.0902C290.429 14.5211 290.473 14.9677 290.641 15.3736C290.809 15.7796 291.093 16.1268 291.458 16.3715C291.823 16.6162 292.252 16.7474 292.691 16.7487C292.982 16.7524 293.27 16.6961 293.538 16.5834C293.805 16.4706 294.047 16.3038 294.247 16.0934C294.664 15.6788 294.899 15.1157 294.9 14.5279C294.901 13.9402 294.669 13.3759 294.255 12.9593C293.84 12.5427 293.277 12.3079 292.689 12.3065C292.101 12.3051 291.537 12.5372 291.121 12.9518ZM292.646 13.1469C293.472 13.1469 293.882 13.4121 293.882 13.9373C293.885 14.0875 293.837 14.2343 293.746 14.354C293.655 14.4738 293.527 14.5596 293.382 14.5977C293.538 14.6755 293.666 14.8004 293.748 14.9547C293.829 15.1091 293.86 15.2851 293.837 15.4581C293.835 15.5919 293.866 15.7241 293.927 15.8433H293.427C293.381 15.7497 293.357 15.6472 293.357 15.5431C293.357 15.2096 293.307 15.0045 293.207 14.9278C293.007 14.816 292.778 14.7705 292.551 14.7978H292.166V15.8433H291.666V13.1569L292.646 13.1469ZM292.646 14.3976C293.147 14.3976 293.397 14.2525 293.397 13.9623C293.398 13.8794 293.375 13.7978 293.332 13.7272C293.282 13.6624 293.211 13.6165 293.132 13.5972C293.056 13.5794 292.979 13.5661 292.901 13.5571H292.636H292.161V14.4076L292.646 14.3976Z" fill="black"/>
<path d="M136.082 29.1643C135.201 28.6961 134.219 28.4513 133.221 28.4513C132.223 28.4513 131.24 28.6961 130.359 29.1643C131.23 28.6209 131.949 27.8665 132.45 26.971C132.951 26.0755 133.218 25.0679 133.226 24.0417C133.232 25.0671 133.497 26.0742 133.997 26.9697C134.496 27.8652 135.213 28.6201 136.082 29.1643Z" fill="black"/>
<defs>
<clipPath id="clip0_1536_6689">
<rect width="34.2226" height="38.8888" fill="white" transform="translate(0 0.555664)"/>
</clipPath>
</defs>
</svg>
