<svg width="147" height="36" viewBox="0 0 147 36" fill="none" xmlns="http://www.w3.org/2000/svg">
<g filter="url(#filter0_dd_747_2210)">
<path d="M22.1149 17.0044C19.932 19.1873 17.7492 21.3796 15.5568 23.5625C15.5094 23.6099 15.4619 23.6669 15.405 23.7143C14.94 24.1889 14.8261 24.9101 15.1298 25.4986L17.0374 29.2569C17.5024 30.1775 17.9675 31.0886 18.4325 31.9997H37.1481C32.137 27.0076 27.126 22.006 22.1149 17.0044Z" fill="#1985D8"/>
<path d="M13.3722 29.3996C13.3722 29.3996 13.3248 29.3331 13.3058 29.2952L11.3982 25.5369C11.3507 25.4514 11.3128 25.3565 11.2843 25.2616C11.1324 24.7396 11.2748 24.1512 11.6734 23.7526C11.7303 23.7052 11.7778 23.6482 11.8253 23.6008C12.8882 22.5853 14.2549 21.2661 15.8113 19.7286C18.203 17.3654 19.9303 15.5717 20.5472 14.9453C24.8275 10.627 29.1078 6.30876 33.3786 2H11.8063C11.2368 2 10.7148 2.32268 10.4586 2.83518L8.2188 7.31477C8.1239 7.50459 8.02899 7.6944 7.93408 7.88421C7.93408 7.8937 7.92459 7.8937 7.92459 7.90319C6.70979 10.3328 5.49498 12.7529 4.28967 15.1825C3.71074 16.3309 3.71074 17.6786 4.28967 18.827C5.49498 21.2471 6.70979 23.6767 7.92459 26.0968C8.91162 28.0709 9.88916 30.0354 10.8762 32H14.6345C14.4257 31.5444 13.9417 30.5479 13.3817 29.4185C13.3817 29.4185 13.3722 29.4185 13.3722 29.3996Z" fill="#1985D8"/>
</g>
<path d="M48.3908 24.0337C47.7235 23.4498 47.223 22.6712 46.9449 21.698C46.639 20.7248 46.5 19.6959 46.5 18.6115C46.5 17.7495 46.6112 16.8597 46.8615 15.9977C47.1117 15.1357 47.4732 14.3849 48.0015 13.8288C48.8357 12.8556 49.9202 12.2994 51.2549 12.1048C52.5896 11.9379 53.7853 12.0214 54.8419 12.4107C56.0654 12.8834 56.983 13.7454 57.5669 14.941C58.1231 15.9977 58.4011 17.249 58.4011 18.6671C58.4011 19.6959 58.2899 20.5857 58.0675 21.3365C57.845 22.0873 57.5391 22.699 57.2055 23.2273C56.4269 24.284 55.4537 24.9513 54.258 25.2016C53.2013 25.4797 52.1169 25.5075 51.0324 25.285C49.948 25.0348 49.086 24.6177 48.4464 24.0337H48.3908ZM50.7266 15.4972C50.0592 16.2479 49.7533 17.3602 49.809 18.8061C49.8646 20.2799 50.1426 21.3087 50.6432 21.8926C50.8378 22.1429 51.1715 22.3653 51.672 22.56C52.1447 22.7268 52.6452 22.7546 53.1457 22.6156C53.6462 22.4766 54.0911 22.1151 54.4804 21.5312C54.8697 20.9472 55.0644 20.0018 55.12 18.7227C55.12 17.5548 54.9253 16.6928 54.5639 16.1089C54.2024 15.525 53.7575 15.1635 53.2848 14.9966C52.8121 14.8298 52.3115 14.8298 51.8388 14.9966C51.3661 15.1357 51.0046 15.3303 50.7822 15.5528L50.7266 15.4972Z" fill="#020202"/>
<path d="M69.8503 25.2013H68.1541C67.6814 25.2013 67.2643 25.0345 66.9584 24.7286C66.6526 24.4227 66.4857 24.0335 66.4857 23.5329V16.9428C66.4857 16.1642 66.2633 15.6081 65.7906 15.2466C65.3179 14.8851 64.7895 14.7183 64.2056 14.7183C63.6217 14.7183 63.0934 14.8851 62.6484 15.2466C62.2035 15.6081 61.9811 16.1642 61.9811 16.9428V25.1735H58.5887V17.6102C58.5887 15.4135 59.1727 13.9397 60.3127 13.189C61.4528 12.4382 62.7319 12.0489 64.1222 11.9655C65.5403 11.9655 66.8472 12.327 68.0429 13.0777C69.2386 13.8285 69.8225 15.3301 69.8225 17.5824V25.1457L69.8503 25.2013Z" fill="#020202"/>
<path d="M79.1866 21.2256H81.6058C81.2443 22.5881 80.5769 23.617 79.5759 24.3399C78.5749 25.0907 77.3236 25.4522 75.7942 25.4522C73.959 25.4522 72.5131 24.8683 71.4842 23.6726C70.4554 22.5047 69.9271 20.8363 69.9271 18.6952C69.9271 16.5542 70.4276 14.997 71.4286 13.8569C72.4575 12.6613 73.9034 12.0773 75.7386 12.0773C77.6851 12.0773 79.1866 12.6613 80.2433 13.8291C81.2721 15.0248 81.8004 16.6932 81.8004 18.8065V19.3348C81.8004 19.5016 81.8004 19.6129 81.7448 19.6685H73.3751C73.4029 20.6695 73.6531 21.4203 74.098 21.893C74.5151 22.4213 75.1547 22.6716 75.9889 22.6716C76.545 22.6716 77.0177 22.5603 77.3792 22.3379C77.4904 22.3101 77.5738 22.2545 77.6573 22.171C77.7407 22.0876 77.8241 22.0042 77.9353 21.893C77.9631 21.8096 78.1022 21.6705 78.2968 21.5037C78.5193 21.3369 78.7973 21.2534 79.1866 21.2534V21.2256ZM73.3751 17.444H78.3246C78.269 16.582 78.0466 15.9146 77.6573 15.4975C77.2402 15.0526 76.6284 14.8302 75.8777 14.8302C75.1547 14.8302 74.5986 15.0526 74.1258 15.4975C73.6809 15.9424 73.4307 16.582 73.4029 17.444H73.3751Z" fill="#020202"/>
<path d="M82.2592 25.201V10.2689C82.2592 9.79623 82.426 9.37913 82.7597 9.04546C83.0934 8.71178 83.5105 8.54494 83.9832 8.54494H85.6794V15.3853L92.1583 8.54494H96.4683L89.7669 15.2741L97.0244 25.201H92.8534L88.6269 19.2782C87.8761 18.305 87.2087 17.9157 86.5692 18.1381C85.9296 18.3606 85.6238 18.7499 85.6238 19.3338V25.201H82.1758H82.2592Z" fill="#020202"/>
<path d="M105.338 15.9428C104.866 15.2754 104.198 14.914 103.364 14.914C102.447 14.914 101.751 15.2476 101.279 15.8872C100.806 16.5267 100.556 17.4165 100.556 18.5566V25.2023H97.2746V8.51849H98.9152C99.3601 8.51849 99.7494 8.68533 100.083 8.9912C100.417 9.32488 100.556 9.71417 100.556 10.1591V13.9964C101.14 13.0231 101.974 12.4114 103.031 12.1611C104.087 11.9109 105.116 11.9665 106.089 12.3558C107.007 12.7451 107.758 13.3568 108.369 14.191C108.981 15.0252 109.287 16.1931 109.287 17.6668V25.1745H106.034V18.4732C106.034 18.0005 106.006 17.5556 105.922 17.1385C105.839 16.7492 105.644 16.3321 105.366 15.915L105.338 15.9428Z" fill="#020202"/>
<path d="M121.028 12.3001V19.8634C121.028 22.1714 120.444 23.6729 119.248 24.3681C118.053 25.091 116.746 25.4247 115.328 25.4247C113.937 25.3691 112.658 24.9798 111.518 24.2568C110.378 23.5339 109.794 22.0879 109.794 19.8356V12.3001H113.186V20.5308C113.186 21.3094 113.409 21.8655 113.854 22.227C114.299 22.5885 114.827 22.7553 115.411 22.7553C115.995 22.7553 116.523 22.5885 116.996 22.227C117.469 21.8655 117.691 21.3094 117.691 20.5308V13.9407C117.691 13.4958 117.83 13.1065 118.164 12.7728C118.497 12.4391 118.859 12.3001 119.359 12.3001H121.056H121.028Z" fill="#020202"/>
<path d="M121.1 20.9186H124.381C124.409 21.5582 124.659 22.0587 125.104 22.3646C125.577 22.6983 126.244 22.8373 127.05 22.8373C127.634 22.8373 128.135 22.7261 128.552 22.5036C128.941 22.2812 129.136 21.9753 129.136 21.586C129.136 21.0021 128.469 20.5572 127.106 20.2791C126.522 20.1957 126.077 20.0845 125.799 20.001C124.075 19.5839 122.935 19.0834 122.351 18.4995C121.712 17.9156 121.378 17.137 121.378 16.1638C121.378 14.9403 121.851 13.9114 122.796 13.1051C123.769 12.3543 125.021 11.9928 126.578 11.9928C128.246 11.9928 129.609 12.3543 130.61 13.1051C131.555 13.9114 132.056 14.9681 132.111 16.2472H130.026C129.414 16.2472 128.941 15.9691 128.608 15.413L128.218 15.0237C127.829 14.7456 127.301 14.5788 126.606 14.5788C125.91 14.5788 125.465 14.69 125.16 14.8569C124.882 15.0515 124.715 15.3296 124.715 15.7189C124.715 16.2472 125.549 16.6643 127.245 17.0258C127.44 17.0814 127.607 17.137 127.746 17.1648C127.885 17.1926 128.024 17.2204 128.163 17.2204C129.803 17.6375 130.943 18.138 131.611 18.6663C132.222 19.2503 132.528 20.0288 132.528 21.0021C132.528 22.4202 132 23.5324 130.971 24.2832C129.998 25.0062 128.552 25.3399 126.606 25.3399C124.659 25.3399 123.38 24.9784 122.49 24.2276C121.545 23.4768 121.1 22.3924 121.1 20.9743V20.8352V20.9186Z" fill="#020202"/>
<path d="M140.93 24.6447C140.262 25.0062 139.539 25.2286 138.761 25.3121C138.01 25.3955 137.343 25.4233 136.759 25.4233C135.591 25.4233 134.59 25.1174 133.7 24.4779C132.81 23.8383 132.393 22.8095 132.393 21.3635C132.393 20.001 132.782 19.0278 133.589 18.4439C134.395 17.8599 135.396 17.4707 136.62 17.276C136.786 17.276 136.981 17.276 137.203 17.1926C137.426 17.137 137.676 17.1092 137.982 17.0814C139.4 16.8867 140.123 16.4696 140.123 15.8301C140.123 15.3574 139.873 15.0237 139.372 14.8847C138.872 14.7456 138.399 14.6622 137.982 14.6622C137.537 14.6622 137.12 14.7178 136.759 14.8569C136.397 14.9959 136.147 15.2183 135.98 15.5798H132.727C132.866 14.5788 133.311 13.7446 134.089 13.1051C134.951 12.3543 136.202 11.9928 137.815 11.9928C139.623 11.9928 140.985 12.2987 141.875 12.9104C142.82 13.55 143.265 14.4676 143.265 15.6354V20.0566C143.265 21.3357 143.043 22.3646 142.57 23.0875C142.097 23.8105 141.541 24.3388 140.902 24.6725L140.93 24.6447ZM140.151 18.6941C139.706 18.9166 139.067 19.139 138.26 19.3337L137.148 19.5839C136.564 19.7508 136.147 19.9454 135.897 20.2235C135.674 20.585 135.563 20.9186 135.563 21.2801C135.563 21.7528 135.702 22.1421 136.008 22.448C136.314 22.6983 136.731 22.8373 137.259 22.8373C138.177 22.8373 138.872 22.587 139.4 22.0587C139.928 21.5304 140.179 20.8352 140.179 19.9176V18.6941H140.151Z" fill="#020202"/>
<path d="M144.623 22.8392C144.818 22.8392 144.957 22.867 145.124 22.9504C145.318 23.0338 145.457 23.145 145.541 23.2563C145.68 23.3675 145.763 23.5065 145.819 23.6734C145.902 23.868 145.93 24.007 145.93 24.1739C145.93 24.3407 145.902 24.5075 145.819 24.6744C145.735 24.8412 145.652 24.9803 145.541 25.0915C145.402 25.2305 145.263 25.3139 145.124 25.3974C144.901 25.453 144.734 25.4808 144.623 25.4808C144.456 25.4808 144.289 25.453 144.123 25.3695C143.984 25.3139 143.817 25.2305 143.705 25.0915C143.594 24.9524 143.483 24.8134 143.427 24.6744C143.372 24.5354 143.344 24.3685 143.344 24.2017C143.344 24.1183 143.344 23.9792 143.4 23.8402C143.4 23.7846 143.427 23.7568 143.455 23.7012C143.455 23.6455 143.511 23.5899 143.539 23.5343C143.65 23.3119 143.789 23.1728 144.011 23.0894C144.178 22.9782 144.401 22.8948 144.651 22.8948L144.623 22.8392ZM144.623 23.0616C144.623 23.0616 144.345 23.0616 144.206 23.1172C144.15 23.1728 144.095 23.2006 144.011 23.2284C143.956 23.2563 143.9 23.2841 143.845 23.3397C143.761 23.4231 143.678 23.5621 143.594 23.7012C143.539 23.8958 143.511 24.0348 143.511 24.1183C143.511 24.2017 143.539 24.3407 143.594 24.5354C143.622 24.6188 143.705 24.73 143.817 24.869C143.9 24.9524 144.039 25.0359 144.178 25.1193C144.317 25.1749 144.456 25.1749 144.595 25.1749C144.734 25.1749 144.873 25.1749 145.012 25.1193C145.151 25.0359 145.29 24.9524 145.374 24.869C145.485 24.7578 145.569 24.6466 145.596 24.5354C145.652 24.4241 145.68 24.2851 145.68 24.1183C145.68 23.9514 145.68 23.8402 145.624 23.7012C145.541 23.5621 145.457 23.4231 145.374 23.3397C145.29 23.2563 145.179 23.1728 145.04 23.0894C144.901 23.0338 144.762 23.0338 144.623 23.0338V23.0616ZM144.067 24.8412V23.5621C144.067 23.5621 144.123 23.4231 144.234 23.4231H144.79C144.957 23.4231 145.068 23.4509 145.124 23.5065C145.207 23.5621 145.235 23.6734 145.235 23.8124C145.235 23.9236 145.235 23.9792 145.179 24.007C145.124 24.0904 145.068 24.1183 145.012 24.1461C145.068 24.1739 145.124 24.2017 145.151 24.2295C145.179 24.2851 145.207 24.3685 145.207 24.4241V24.73C145.207 24.73 145.207 24.7578 145.207 24.7856C145.207 24.7856 145.207 24.8134 145.263 24.8134H144.929V24.4797C144.929 24.4797 144.873 24.3407 144.873 24.2851C144.846 24.2573 144.79 24.2295 144.707 24.2295H144.401V24.7856H144.095L144.067 24.8412ZM144.373 24.007H144.734C144.734 24.007 144.873 24.007 144.901 23.9514C144.929 23.9514 144.957 23.8958 144.957 23.8124C144.957 23.729 144.957 23.7012 144.901 23.6734C144.846 23.6177 144.79 23.6177 144.734 23.6177H144.373V24.007Z" fill="#020202"/>
<defs>
<filter id="filter0_dd_747_2210" x="0.855469" y="0" width="39.293" height="36" filterUnits="userSpaceOnUse" color-interpolation-filters="sRGB">
<feFlood flood-opacity="0" result="BackgroundImageFix"/>
<feColorMatrix in="SourceAlpha" type="matrix" values="0 0 0 0 0 0 0 0 0 0 0 0 0 0 0 0 0 0 127 0" result="hardAlpha"/>
<feOffset dy="1"/>
<feGaussianBlur stdDeviation="1"/>
<feColorMatrix type="matrix" values="0 0 0 0 0.0627451 0 0 0 0 0.0941176 0 0 0 0 0.156863 0 0 0 0.06 0"/>
<feBlend mode="normal" in2="BackgroundImageFix" result="effect1_dropShadow_747_2210"/>
<feColorMatrix in="SourceAlpha" type="matrix" values="0 0 0 0 0 0 0 0 0 0 0 0 0 0 0 0 0 0 127 0" result="hardAlpha"/>
<feOffset dy="1"/>
<feGaussianBlur stdDeviation="1.5"/>
<feColorMatrix type="matrix" values="0 0 0 0 0.0627451 0 0 0 0 0.0941176 0 0 0 0 0.156863 0 0 0 0.1 0"/>
<feBlend mode="normal" in2="effect1_dropShadow_747_2210" result="effect2_dropShadow_747_2210"/>
<feBlend mode="normal" in="SourceGraphic" in2="effect2_dropShadow_747_2210" result="shape"/>
</filter>
</defs>
</svg>
